<svg xmlns="http://www.w3.org/2000/svg" viewBox="0 0 265.93 107.79"><defs><style>.cls-1,.cls-3,.cls-5{fill:#fff;}.cls-2{fill:none;}.cls-3,.cls-5{font-size:18.7px;}.cls-3{font-family:NexaBold, Nexa Bold;}.cls-4{letter-spacing:-0.03em;}.cls-5{font-family:NexaLight, Nexa Light;}</style></defs><title>Recurso 1</title><g id="Capa_2" data-name="Capa 2"><g id="Capa_1-2" data-name="Capa 1"><path class="cls-1" d="M104,58.87,87.09,49l11.58,1.6-27.35-25L54.56,52,52,67.46,49.41,52,32.65,25.6,5.3,50.61,16.88,49,0,58.87l17.5,8.25H9.36L29.82,79.07,35.61,100,49,107.79,52,105.18H50.73L44.86,96.8l1.12-2H58l1.12,2-5.87,8.38H52l3,2.61L68.36,100l5.79-20.94L94.61,67.12H86.47Zm-64.33.74-5,.55-5.82-6.84s9.89,2,10.16,2.13,6.84,9.76,6.84,9.76Zm29.68.55-5-.55-6.2,5.6S64.7,55.54,65,55.45s10.17-2.13,10.17-2.13Z"/><polygon class="cls-1" points="73.38 17.84 87.15 0 87.98 32.72 73.38 17.84"/><polygon class="cls-1" points="30.59 17.84 16.82 0 15.99 32.72 30.59 17.84"/><path class="cls-2" d="M58.13,65.21l6.2-5.6,5,.55,5.82-6.84s-9.89,2-10.17,2.13S58.13,65.21,58.13,65.21Z"/><path class="cls-1" d="M44.86,96.8l1.12-2h6V67.46L49.41,52,32.65,25.6,5.3,50.61,16.88,49,0,58.87l17.5,8.25H9.36L29.82,79.07,35.61,100,49,107.79,52,105.18H50.73ZM34.65,60.16l-5.82-6.84s9.89,2,10.16,2.13,6.84,9.76,6.84,9.76l-6.19-5.6Z"/><polygon class="cls-1" points="16.82 0 15.99 32.72 30.59 17.84 16.82 0"/><text class="cls-3" transform="translate(125.98 36.1)"><tspan class="cls-4">S</tspan><tspan x="11.78" y="0">YSTEM</tspan></text><text class="cls-5" transform="translate(210.05 36.1)">WOLF</text></g></g></svg>